<svg xmlns="http://www.w3.org/2000/svg" version="1.1" xmlns:xlink="http://www.w3.org/1999/xlink" xmlns:svgjs="http://svgjs.dev/svgjs" width="1440" height="250" preserveAspectRatio="none" viewBox="0 0 1440 250"><g mask="url(&quot;#SvgjsMask1000&quot;)" fill="none"><rect width="1440" height="250" x="0" y="0" fill="#0e2a47"></rect><path d="M17 250L267 0L607.5 0L357.5 250z" fill="url(&quot;#SvgjsLinearGradient1001&quot;)"></path><path d="M252.60000000000002 250L502.6 0L760.6 0L510.6 250z" fill="url(&quot;#SvgjsLinearGradient1001&quot;)"></path><path d="M493.20000000000005 250L743.2 0L912.7 0L662.7 250z" fill="url(&quot;#SvgjsLinearGradient1001&quot;)"></path><path d="M758.8000000000001 250L1008.8000000000001 0L1353.8000000000002 0L1103.8000000000002 250z" fill="url(&quot;#SvgjsLinearGradient1001&quot;)"></path><path d="M1415 250L1165 0L871 0L1121 250z" fill="url(&quot;#SvgjsLinearGradient1002&quot;)"></path><path d="M1160.4 250L910.4000000000001 0L794.9000000000001 0L1044.9 250z" fill="url(&quot;#SvgjsLinearGradient1002&quot;)"></path><path d="M932.8 250L682.8 0L414.29999999999995 0L664.3 250z" fill="url(&quot;#SvgjsLinearGradient1002&quot;)"></path><path d="M700.1999999999999 250L450.19999999999993 0L148.69999999999993 0L398.69999999999993 250z" fill="url(&quot;#SvgjsLinearGradient1002&quot;)"></path><path d="M1195.0701993696457 250L1440 5.0701993696457635L1440 250z" fill="url(&quot;#SvgjsLinearGradient1001&quot;)"></path><path d="M0 250L244.92980063035424 250L 0 5.0701993696457635z" fill="url(&quot;#SvgjsLinearGradient1002&quot;)"></path></g><defs><mask id="SvgjsMask1000"><rect width="1440" height="250" fill="#ffffff"></rect></mask><linearGradient x1="0%" y1="100%" x2="100%" y2="0%" id="SvgjsLinearGradient1001"><stop stop-color="rgba(15, 70, 185, 0.2)" offset="0"></stop><stop stop-opacity="0" stop-color="rgba(15, 70, 185, 0.2)" offset="0.66"></stop></linearGradient><linearGradient x1="100%" y1="100%" x2="0%" y2="0%" id="SvgjsLinearGradient1002"><stop stop-color="rgba(15, 70, 185, 0.2)" offset="0"></stop><stop stop-opacity="0" stop-color="rgba(15, 70, 185, 0.2)" offset="0.66"></stop></linearGradient></defs></svg>